<svg width="819.2" height="819.2" xmlns="http://www.w3.org/2000/svg" xmlns:svg="http://www.w3.org/2000/svg" preserveAspectRatio="xMidYMid meet" version="1.0">
 <metadata>Created by potrace 1.13, written by Peter Selinger 2001-2015</metadata>
 <g class="layer">
  <title>Layer 1</title>
  <g fill="#000000" id="svg_1" transform="matrix(0.138329 0 0 -0.147064 -117.177 -131.274)">
   <path d="m3585.98,-936.42c-409,-51 -694,-137 -1024,-309c-259,-134 -509,-322 -719,-539c-377,-388 -621,-859 -716,-1380c-40,-215 -49,-349 -43,-606c5,-246 19,-356 72,-579c119,-498 378,-947 756,-1315c155,-150 227,-208 409,-330c322,-215 702,-364 1110,-435c177,-31 512,-38 705,-16c525,61 1018,269 1434,602c327,262 565,558 753,936c201,404 302,931 269,1396c-61,854 -448,1556 -1134,2055c-393,286 -882,475 -1337,516c-107,10 -467,13 -535,4zm514,-609c403,-58 774,-224 1114,-497c341,-276 591,-663 706,-1099c85,-320 86,-759 1,-1106c-133,-545 -470,-990 -987,-1304c-572,-347 -1284,-401 -1898,-143c-622,261 -1045,712 -1247,1330c-71,220 -98,402 -98,667c0,352 65,646 205,933c248,508 728,932 1266,1120c124,43 325,93 421,104c127,15 402,12 517,-5z" fill="#ffffff" id="svg_3"/>
   <path d="m3791.98,-1742.42c-13,-6 -34,-25 -45,-40c-20,-28 -21,-41 -24,-402l-3,-374l-693,-3l-694,-3l-43,-30c-52,-37 -77,-77 -85,-138l-7,-47l84,-2c46,-1 120,-3 164,-3c131,-2 134,-2 154,-35c15,-26 19,-53 19,-172c2,-232 -5,-238 -253,-238l-167,0l7,-347c8,-378 8,-377 69,-441c65,-69 42,-66 562,-72c399,-4 474,-7 489,-20c40,-33 45,-69 45,-317c0,-221 -2,-240 -20,-271c-37,-60 -50,-62 -455,-62c-402,0 -410,1 -440,60c-24,47 -19,97 13,129c27,28 28,28 204,34c98,3 186,11 198,17c25,14 50,61 50,97c0,42 -36,92 -77,109c-30,13 -74,15 -237,12c-226,-4 -245,-9 -318,-85c-62,-64 -80,-119 -79,-240c0,-89 4,-113 25,-158c32,-69 102,-140 174,-173l57,-27l1350,-3c1328,-2 1351,-2 1416,18c76,23 153,84 193,154c55,94 60,262 11,361c-31,64 -104,128 -163,145c-24,6 -318,10 -832,10c-880,0 -827,-4 -850,65c-16,47 -5,89 32,120l30,25l808,0c785,0 811,1 863,20c62,23 98,57 126,120c19,42 21,65 21,382l0,337l-186,3l-186,3l-24,28c-23,27 -24,33 -24,196c0,167 0,168 26,192c25,24 29,24 207,24l182,0l3,29c9,72 -59,164 -135,185c-25,7 -272,11 -710,11l-673,0l0,368c0,329 -2,371 -18,402c-27,55 -87,75 -141,47zm-486,-1051c21,-9 37,-24 40,-39c4,-13 5,-97 3,-185c-4,-219 10,-206 -230,-210c-100,-2 -192,-1 -206,3c-13,3 -35,18 -48,32c-23,25 -24,31 -24,185c0,90 4,168 10,178c23,43 55,49 243,50c132,0 186,-4 212,-14zm738,3c41,-18 47,-49 47,-224l0,-163l-31,-27l-32,-26l-193,3l-193,3l-30,29l-31,30l0,166c0,160 1,167 23,187c12,12 31,23 42,26c43,10 374,7 398,-4zm750,-12l27,-17l0,-179l0,-179l-31,-26c-31,-26 -31,-26 -221,-26l-190,0l-34,34l-34,34l0,155c0,142 2,156 21,181c12,15 30,31 40,35c11,3 104,6 207,6c163,0 191,-2 215,-18zm-1861,-645c21,-21 23,-32 26,-164c4,-166 -1,-202 -33,-234c-24,-24 -27,-24 -224,-24l-201,0l-32,29l-33,30l3,168l2,168l31,28l31,28l204,-3c196,-3 204,-4 226,-26zm727,17c52,-18 61,-50 61,-207c0,-76 -5,-153 -11,-171c-19,-55 -45,-61 -263,-61l-196,0l-32,29l-33,29l1,167c1,158 3,167 24,190c20,21 33,25 109,28c204,7 310,6 340,-4zm780,-4c16,-8 31,-22 35,-30c3,-9 6,-91 6,-182l0,-165l-29,-29l-29,-29l-202,0l-202,0l-35,35l-35,35l4,160c4,150 5,161 27,184c31,32 35,33 249,35c143,1 189,-2 211,-14zm766,-15c25,-23 25,-25 25,-193l0,-169l-29,-29l-29,-29l-201,0c-197,0 -200,0 -228,24l-28,24l-3,165l-3,164l26,31c14,17 36,33 48,35c12,2 106,3 209,2c182,-1 189,-2 213,-25zm-3,-1119c33,-37 38,-102 12,-140c-36,-51 -29,-51 -809,-51c-795,0 -778,-1 -809,59c-41,78 -4,151 80,160c27,3 375,5 773,5l725,-2l28,-31z" fill="#ffffff" id="svg_4"/>
   <path d="m3462.98,-5151.42c-9,-9 -12,-69 -12,-209c0,-166 2,-200 16,-213c12,-13 39,-16 125,-16c106,0 109,0 115,24c12,49 -9,65 -89,68l-72,3l-3,164c-1,101 -7,170 -13,178c-14,16 -51,17 -67,1z" fill="#ffffff" id="svg_5"/>
   <path d="m3832.98,-5151.42c-13,-13 -17,-405 -4,-424c12,-18 42,-24 63,-14c15,9 19,22 19,69c0,45 4,62 20,76c19,17 21,17 41,-1c12,-10 39,-43 61,-71c21,-29 50,-60 63,-69c23,-15 27,-15 50,0c14,9 25,23 25,32c0,8 -35,57 -79,108l-79,93l68,71c73,76 89,104 70,127c-27,33 -58,17 -150,-77l-89,-93l-1,81c0,84 -9,104 -45,104c-12,0 -26,-5 -33,-12z" fill="#ffffff" id="svg_6"/>
  </g>
 </g>
</svg>
